<?xml version="1.0" encoding="UTF-8"?><svg id="Layer_1" xmlns="http://www.w3.org/2000/svg" viewBox="0 0 365.6 362.35"><path d="M338.67,124.3c7.73-1.3,13.07,7.71,16.13,13.51,11.9,22.57,13.73,58.57,6.66,82.86-3.72,12.76-11.9,26.71-22.53,8.97-11.38-19-16.65-55.15-13.97-76.91.88-7.13,5.09-26.98,13.71-28.43ZM344.86,135.73c-2.6.42-5.25,5.57-6.24,7.81-9.34,21.1-12.71,51.81-.88,72.53,1.33,2.33,3.35,5.77,6.35,3.65,4.58-3.25,8.95-21.04,10.29-26.85,3.74-16.3,6.01-33.09-1.39-48.71-1.3-2.75-4.53-9-8.12-8.43Z"/><path d="M171.64,165.2c-.72-1.89.26-3.06.45-4.67,1.31-10.9,1.08-21.15.74-32.13-.08-2.74-.79-5.83-.48-8.56.04-.36.05-.73.48-.82.63,1.73.34,3.39.48,5.12.9,11.14,1.13,22.3.03,33.36-.25,2.5-.15,5.03-.74,7.47,2.95.28,5.98.24,8.92.48,7.93.66,15.56,2.33,23.03,5.06,6.87,2.51,12.2,6.02,18.59,9.26,1.71.87,3.79,1.45,5.33,2.27.09.05,1.44,1.12,1.49,1.2.23.29.5.87-.12.78-1.35-.21-5.11-2.25-6.55-2.97-6.42-3.21-11.56-6.62-18.5-9.11-12.18-4.38-21.07-4.64-33.8-4.88-8.71-.16-16.39-6.07-24.45-8.53-4.44-1.36-9.91-2.04-14.53-2.6-8.85-1.07-17.51-2.01-26.43-1.92-6.75.07-15.16,2.39-21.7.06-1.89-.67-9.79-5-11.37-6.25s-6.24-7.49-7.46-9.44c-4.11-6.55-5.61-15.59-8.07-22.88-.79-2.34-2.62-5.67-3.1-7.85-.15-.65.05-1.32-.16-1.98-.68-2.21-4.9-2.57-5.43-3.86-.16-.4.13-1.08-.41-1.48,2.49-.94,5.15-1.71,7.14-3.56,3.96-3.67,5.98-7.81,7.96-12.75,2.25-5.63,4.26-11.31,6.01-17.08,2.21-7.31,8.36-9.42,15.44-10.27,11.26-1.35,22.93-2.11,34.25-1.68,10.51.4,20.37,1.71,30.78,3.26,7.81,1.16,15.26,1.06,23,1.27,4.88.13,11.09,1.74,15.71,1.33,11.45-1,23.36-2.09,34.67-4.56,4.23-.92,7.93-3.37,12.48-2.51.51.1.76.5,1.07.83.1.85-1.43.45-1.43.71l.95.12-.47.24v.47c1.38.17.53,1.3.85,2.13.4,1.06,2.24,2.08,3.05,3.14,2.83,3.68,5.93,10.25,7.8,14.58.79,1.82,1.46,3.76,2.1,5.64.42-.06.27-1.26.24-1.56-.28-3.04-3.1-10.94-4.57-13.77-1.23-2.38-2.13-1.65-3.69-3.09-.62-.57-3.36-4.31-3.42-5.03-.01-.15-.06-.39.12-.36,2.53.82,1.92,2.39,3.33,3.82,1.02,1.04,2.76,1.49,3.8,2.86,2.56,3.37,5.48,14.12,6.08,18.44,1.27,9.19,4.67,22.45,2.84,31.4-.11.54-1.42,4.66-1.64,4.79-.49.31-1.41-1.14-1.44-1.44-.09-.85,1.32-3.88,1.57-5.1.75-3.74.28-8.13.1-11.92l-2.01,12.39-.48.7c-2.38-1.34-.48-3.73-.15-5.85.84-5.46,1.48-12.3.68-17.76-1.04-7.1-7.52-22.62-12.07-28.17-1.03-1.25-2.46-2.17-3.51-3.41-.88-.11-1.7.32-2.57.34-3.87.08-4.85-.48-8.19,2.15-2.2,1.73-7.98,9.89-9.35,12.55-.33.64-2.38,5.44-2.31,5.74.06.26.55.31.7.54.21.32.59,4.84.77,5.84.65,3.68,1.25,5.49,1.35,9.35.09,3.55.38,7.23.27,10.72-.06,1.77-.67,3.62-.54,5.44l-.55.39c-2.32-1.57-.77-4.01-.69-6.35.13-4.04.14-8.76.1-12.81-.02-1.6-1.45-8.73-1.94-10.46-.08-.27-.08-.57-.45-.62-1.17,2.86-2.73,5.59-3.74,8.52-3.66,10.62-5.73,24.22-4.83,35.4.31,3.84,1.2,7.85,1.63,11.7,1.13,9.94,1.19,22.2,6.98,30.64,1.53,2.23,3.77,5.56,6.59,5.9l.03.93c-2.45.15-4.38-2.55-5.81-4.31-8.03-9.91-7.51-19.52-8.95-31.52-.87-7.22-2.44-14.88-2.15-22.15.66-16.33,4.77-28.27,11.39-42.89,2.13-4.7,5.34-7.95,7.9-12.34l3.09-2.97c-2.73.25-5.36,1.14-8.04,1.6-9.31,1.6-22.28,3.47-31.6,2.93-2.2-.13-4.72-.82-6.9-.96-3.34-.22-6.9.21-10.24,0-7.37-.44-14-1.42-21.24-2.56-10.12-1.59-22.38-2.62-32.54-2.45-9.36.15-28.1.55-36.38,4.08-5.96,2.54-5.5,6.95-7.28,12-1.11,3.15-2.75,6.04-3.7,9.39-.09.33-.38.8.24.72,3.13-4.79,6.53-9.55,11-13.17,2.62-4.72,11.87-10.2,17.09-10.64,4.34-.36,9.56.55,12.21,4.2.75,1.03,1.61,2.19,2.28,3.19,1.44,2.14,1.64,4.3,2.82,6.47,1.81,3.34,2.83,2.86,2.55,7.44-.2,3.44-.75,6.78-.95,10.24-.14,2.34-1.29,4.87-1.43,7.26l-.93-.39c.06-1.01.46-2.62.43-3.56-.02-.58-.52-.82-.63-1.24-.39-1.41.78-4.1,1.07-5.49.46-2.26,1.65-9.22.97-11.07-.49-1.33-2.05-2.97-2.77-4.61-1-2.28-2.5-6.4-4.4-8.1-2.36-2.11-7.45-2.83-10.49-2.44-3.92.51-11.01,4.33-13.71,7.24-1.85,1.99-3.59,3.96-5.48,5.94-2.52,2.64-4.46,5.7-6.56,8.68-.49.7-2.15,2.07-1.96,2.94.08.36.7.72.56,1.13-.13.25-1.37-.04-1.68-.12-.39-.1-1.52-.7-1.74-.58l-2.38,5.38.94,1.14c-1.45,1.96-.77,4.48-1.43,6.71l.23.68,20.23,2.26-.48-1.3.48-6.08c-1.98.55-3.85,1.6-5.77,2.21-2.65.84-5.59,1.01-8.35,1.09l-.65-1.24c1.91-.66,4.01-.65,6.02-1.17,3.01-.78,6.25-2.31,9.12-3.49.05-1.38.63-3.04,2.14-1.69,1.05.94-.12,1.21-.32,1.6-.14.28-.19.83-.26,1.18-.55,2.89-.38,5.9-.92,8.79l.34.3c3.46.35,6.79,1.46,10.22,1.92,1.71.23,3.68.33,5.45.5,14.83,1.5,29.64,2.4,44.51,3.33,8.04.5,15.7,1.78,23.56,2.38,2.93.22,6.19.02,9.16.24v-4.29h.48v3.45c0,.17.38.94.63,1.03.48.17,2.18.38,2.85.49,4.53.74,10.69,1.63,15.21,1.93,1.88.13,3.37-1.14,3.38,1.56-.1.53-2.8.38-3.39.34-5.51-.39-11.61-2.04-17.14-2.37-1.06-.06-1.49-.05-2.25.71v-.95c-2.74-.16-5.74-.03-8.45-.24-6.88-.53-13.79-2.06-20.71-2.38-1.06-.05-2.14.02-3.2.01l-.84,41.17c-.27-.22-.49-.47-.64-.78-.67-1.4.02-4.27.06-5.99.08-3.81.14-7.66.23-11.44.18-7.74.57-15.49-.49-23.2-2.51-.62-5.06.05-7.48,0-7.9-.16-16.58-1.4-24.52-2.16-7.28-.7-14.38-1.17-21.6-2.44s-14.24-1.74-21.45-2.59c-.77-.09-4.69-1.27-4.92-.29.39,4.38-.24,9.24,1.03,13.47.35,1.16,1.72,2.72.99,3.76-1.37-.03-2.3-3.39-2.61-4.53-1.13-4.16-.16-7.67-.83-11.07-.11-.55-.7-.74-.71-1.19,0-.35.44-.85.49-1.43.08-.91-.3-2.1-.25-3.08.06-1.34.66-2.78.47-4.18-1.67,1.1-2.99,3.28-4.44,4.49s-4.1,1.79-5.79,2.66c-.13.57.1.38.31.53,1.27.88,2.49,1.3,3.5,2.68.94,1.29.67,2.48,1.12,3.88.81,2.53,2.18,5.12,3.04,7.68,1.73,5.17,2.8,10.59,4.78,15.7,1.81,4.66,5.36,10.2,8.68,13.94,2.02,2.28,5.87,3.61,8.58,4.99,1.15.58,1.78,1.36,3.2,1.8,4.89,1.54,9.02.6,13.82.23,8.11-.63,16.72-.6,24.71.26,7.74.83,16.92,1.44,24.26,3.85,4.65,1.52,16.35,8.04,20.29,8.04h5.12ZM234.48,55.68c-1.17-.03-2.48.07-3.62.31-.41.09-1.06.01-.9.64,1.4-.01,3.42.01,4.52-.95Z"/><path d="M123.32,48.77l-.38,1.92-36.75-.49v-1.91s12.04.02,12.04.02c.8-12.05,5.41-23.36,10.77-33.99l.04-.55-12.38-1.43.93-2.47,27.4,2.95-1.9,3.8c1.92-.52,3.72-1.36,5.66-1.83,8.12-1.95,20.07-1.5,28.02,1.12,15.45,5.09,9.59,15.96-2.51,20.11-9.13,3.13-27.09,3.96-35.86-.3-.59-.28-2.84-1.99-3.17-1.71-.9,3.64-2.17,7.19-2.79,10.9-.13.78-.52,2.69-.5,3.32,0,.29.09.37.31.54h11.07ZM136.6,15.98c-6.35.39-13.77,2.45-17.19,8.28-6.62,11.29,10.65,12.73,17.84,12.37,6.33-.31,11.17-2.33,14.49-7.89,1.51-2.52,3.36-6.55,1.43-9.25-2.44-3.42-12.7-3.76-16.58-3.52Z"/><path d="M301.6,63.06l13.52-28.03-.07-.77-4.61-3.74,1.4-3.16c.38-.28,4.05,2.64,4.63,3.1.87.68,6.33,5.18,6.28,5.78-10.51,21.69-20.1,43.85-28.19,66.58-.11.24.02.42.08.64.64,2.23,3.79,6.24,4.06,8.35.13.99-1.19,2.96-1.15,4.11l-9.62-18.57,1.77-5.72c-5.28,1.86-9.18-4.53-11.52-8.35-5.38-8.79-8.52-19.65-3.1-29.25,4.82-8.53,15.75-12.63,22.81-4.04,1.68,2.05,3.71,6.77,3.71,9.38v3.69ZM290.36,50.01c-5.3.53-10.56,12.23-11.78,16.8-1.77,6.59-.76,11.64,3.3,17.03,5.28,7,9.01,3.09,12.14-3.01s6.33-15.86,4.6-22.78c-.81-3.25-4.48-8.42-8.26-8.04Z"/><path d="M80.93,8.08l-3.23,9.05-6.28-.73c.92-7.06-8.29-9.06-13.56-10.13s-20.83-3.46-25.22-.45,1.79,5.23,4.14,6.06c11.27,4,24.33,5.18,35.35,9.64,2.69,1.09,7.89,3.21,6.17,6.88s-12.24,4.94-16.04,5.14c-15.16.79-33.4-1.38-48.24-4.6-.62-.13-3.34-.59-3.49-1.03-.09-3.23.09-6.52.67-9.7.32-.58,6.6.59,7.64.67.5,2.09.95,4.01,2.48,5.62,4.2,4.42,17.35,5.97,23.34,6.42,3.98.3,15.06.94,18.09-1.43,4.08-3.19-4.41-5.13-6.44-5.69-8.98-2.5-34.62-6.73-40.33-13-2.43-2.67-.81-5.63,1.98-7.06,8.49-4.36,27.63-2.25,37.13-.87,8.69,1.26,17.31,3.22,25.85,5.22Z"/><path d="M220.43,23.77l4.6,2.42c3.5,3.34.15,8.58-.69,12.33-1.04,4.66,2.03,5.16,5.85,5.84.4.31.1.26,0,.48-.15.31-.6,1.18-.88,1.27-.91.31-8.46-1.55-9.84-1.99-1.64-.52-4.55-1.5-4.94-3.39-.6-2.88,3.11-8.93,3.28-12.34.21-4.24-5.63-4.51-8.69-4.87-2.48-.3-5.64-.64-8.1-.73-.29,0-.57-.04-.82.13l-9.28,15.24c-.07.48.01.31.35.35,3.26.4,6.62.35,9.88.72l-1.11,1.88-31.5-2.25.62-1.56,10.45.51.95-.26c6.29-11.8,13.94-22.79,21.3-33.93l-.35-.35-11.07-.95,1.58-2.34c3.07.08,6.17.39,9.24.68,9.87.91,22.27,1.51,31.73,3.73,6.28,1.48,14.14,4.63,8.13,12.09-4.68,5.81-13.65,7.32-20.7,7.27ZM201.87,20.68c9.54.47,22.57,3.74,29.51-4.88,4.4-5.47,3.22-7.93-3.37-9.47-4.89-1.15-10.25-1.33-15.26-1.78l-10.88,16.14Z"/><path d="M104.47,156.58c-.06.1-.5.19-.68.39-.25.27-.39.66-.64.85-1.33,1.01-3.78,1.14-2.91,3.33-1.52.34-1-.52-1.9-1.19-.38,1.52-.1,3.11-.24,4.64-.4,4.35-1.37,9.02-1.66,13.34-.2,3.02.11,6.24,0,9.29-.28,8.28-.95,12.07,1.3,20.35.65,2.38,2.11,8,3.81,9.52,4.71,4.22,11.33.47,16.6-.52.86-.42,1.79-3.49,2.08-4.47l.67.28c.26,1.19-.5,2.41-.15,3.6.2.68,1.28,1.01,1.59,1.5.65,1.02,1.09,3.21.29,4.23-1.57.75-1.62-1.71-.77-2.55l-1.75-1.82-.87,1.87c-.29.18-1.67-.26-1.39.39l2.62,3.11,2.61.11c-.29.78.65,1.25.66,1.73.02.83-.62,1.78-.79,2.55-.36,1.61-.51,5.04-1.78,6.07-.89.73-3.09,1.27-3.75,2.43-.82,1.44-.7,4.52-1.46,6.16l-1.83,5.11c-1.61,3.58-6.22,7.57-9.53,9.72-4.95,3.22-7.61,4.89-13.72,4.05-1.64-.22-7.37-1.38-8.48-2.23-1.26-.95-1.73-5.65-3.5-6.73-3.48-.21-6.77,1.37-10.14.14-2.42-.88-3.79-3.2-5.52-4.95-.72-.72-1.95-1.4-2.61-2.15-.96-1.1-4.25-7.91-4.76-9.52-.33-1.02-1.77-6.52-1.76-7.26,0-.54.44-1.21.51-1.82.35-2.82.63-5.71,1.08-8.49-1.87-1.17-3.68-.07-5.59.17-4.25.54-8.79,1.03-12.95,2.04-1.52.37-2.68,1.31-4.03,1.69-4.42,1.21-9.06.29-13.45.1-3.41-.15-11.26.75-13.82-1.42-.89-.75-1.83-3.24-1.25-4.24.16-.27,4.38-2.64,5.24-3.38,3-2.6,3.46-6.24,8.28-5.13,3.48.8,4.56,1.64,8.45,1.56,4.85-.1,10.14-1.28,14.99-1.92,1.96-.26,6.4-1.94,8.52-2.67,2.3-.79,2.79-1.79,5.66-1.26s6.03,4.56,6.93,7.11c1.23,3.49-.16,6.71.65,10.24-.28.91-4.5.99-4.51,2.89.58,1.76.79,3.64,1.27,5.42.31,1.14.83,2.95,1.18,4.05.23.72,1.2,3.44,1.61,3.86.55.57,3.93,2.7,4.75,3.1,2.65,1.28,6.7,2.23,9.51,1.18,1.25-.47,2.98-2.86,4.29-3.33,1.52-.55,5.19.23,6.53,1.11.95.62,1.43,3.47,1.58,4.62.09.66-.19,1.16-.02,1.89.4,1.73,2.31,5.1,4.01,5.77,5.82,2.32,7.54-2.8,10.65-6.13,1.14-1.23,2.63-2.1,3.65-3.49,2.22-3.03,2.2-7.61,4.36-11.12,1.32-2.14,5.36-3.76,5.45-6.71.06-1.83-.95-2.41-2.02-3.61-.9.33-1.91.28-2.81.46-3.18.63-4.14,1.74-7.68.66-2.12-.65-5.31-3.24-6.07-5.35-2.57-7.05-4.68-15.37-4.52-22.88.23-10.57,1.56-20.31,2.38-30.7.1-1.31.05-2.72,0-4.03l.48-.25.95.84c.12-1.58,2.1-2.05,3.32-2.76.45-.27,1.42-1.21,1.61-1.27.76-.2,1.62,1.15,1.21,1.83ZM118.32,222.58v3.45c0,1.14-4.72,4.95-5.48,6.18-2.37,3.84-2.01,8.59-5,11.9-.95,1.05-2.24,1.72-3.18,2.76-1.97,2.2-3.63,5.75-6.64,6.7-1.05.33-3.86,0-4.86-.48-1.13-.55-2.88-3.65-3.49-4.84-.37-.72-1.36-2.63-1.48-3.3-.37-2,1.56-3.7-1.63-4.78-1.4-.47-3.51-.89-4.89-.35-1.1.43-2.31,2.39-3.64,3.03-2.96,1.43-7.53.52-10.4-.88-.88-.43-1.53-1.25-2.3-1.75-.61-.4-1.43-.55-1.96-.89-1.77-1.14-3.17-7.41-3.82-9.51-.7-2.24-.84-2.47-1.26-4.93-.14-.83-.83-1.91-.88-2.7-.12-1.87,3.31-2.51,4.52-3.35-.61-2.6.31-5.2-.04-7.79-.18-1.33-.62-1.03-1.17-1.69-1.48-1.78-2.61-3.47-5.17-3.87-2.09-.33-2.63.72-4.28,1.32-4.13,1.49-9.52,3.08-13.78,3.6-1.15.14-2.41-.1-3.54.03-3.65.41-6.11,1.35-9.93.64-2.04-.38-5.28-2.16-7.15-1.79-1.73.35-3.72,3.64-5.02,4.86-.82.78-5.12,3.38-5.17,4.02-.02.28.36,1.11.56,1.24,1.1.71,8.57.14,10.53.3,3.25.26,5.55.74,9.05.49,3.26-.23,4.88-1.26,7.72-2.04,4.83-1.33,12.05-2.58,17.01-2.98,2.85-.23,5.42,1.1,6.23,3.94-.38,1.04-.64,2.31-.79,3.4-.24,1.7-1.08,6.29-.93,7.67.13,1.17,1.05,4.5,1.46,5.7.5,1.48,3.34,7.31,4.27,8.35.56.62,1.8,1.28,2.39,1.89,2.09,2.16,2.5,4.32,6.19,4.3.93,0,1.61-.4,2.41-.47,1.38-.12,4.87-.51,5.94-.04,2.67,1.15,3.5,6.75,4.55,7.35.3.18,4.98,1.1,5.7,1.21,2.68.38,5.93.58,8.42-.57,3.32-1.54,11.98-7.46,13.91-10.37,1.3-1.96,2.78-5.24,3.46-7.49.73-2.4.49-5.44,2.55-7.21.94-.81,2.32-1.1,3.06-1.7,1.39-1.13.88-4.87,1.78-6.43-1.72.54-2.39-1.74-3.81-2.14Z"/><path d="M314.69,158.77c-.61.09-.37-.05-.5-.33-2.67-5.92-4.77-13.08-7.18-19.25-2.15-5.51-4.6-10.96-6.62-16.48l1.32-4.17,4.17,9.76.42-.41c4.25-13.57,9.05-26.95,13.98-40.28l-4.53-7.62,1.67-4.3c2.35,3.24,4.57,6.6,6.65,10.02.8,1.31,3.2,4.8,3.58,5.95.09.27.21.51.15.81-5.63,16.13-11.18,32.29-16.16,48.65.9,4.17,2.95,8.14,4.37,12.18l-1.33,5.49Z"/><path d="M254.23,29.96c1.84,4.8-4.5,7.18-7.59,4.14-2.59-2.54,1.64-5.14,3.84-5.88,6.38-2.15,21.42.16,20.39,9.21-.48,4.25-6.57,12.69-8.67,17.04-.66,1.36-1.51,2.88-1.31,4.42.22,1.71,2.74,2.83,3.79,4.07l-1.04,2.23c-2.47-2.04-5.72-3.79-7.73-6.31-1.25-1.56-1.89-2.82-1.2-4.87-3.05.82-5.55.51-8.51-.42-4.75-1.48-14.93-6.94-8.04-12.45,5.3-4.24,16.6-1.47,22.2,1.4.2.07.37.04.54-.07.26-.17,2.88-4.63,3.14-5.21,1.39-3.13.85-5.01-2.36-6.3-.47-.19-2.98-1.01-3.28-1.01h-4.17ZM244.32,49.64c.95,1.02,3.99,2.16,5.38,2.36,5.5.8,7.46-2.72,9.76-6.92-3.73-1.85-11.25-5.02-14.64-1.31-1.55,1.69-2.22,4.05-.51,5.88Z"/><path d="M336.31,309.76c.04.77.67,1.19.92,1.81.22.52-.17,1.41.7,1.67,2.31.69,3.64-1.94,4.94-1.85.23.02,2.58,1.38,2.75,1.56.24.24.16.66.39.84.58.46,2.09.32,2.47.57.19.13.96,2.01.95,2.37,0,.19-.26,1.66-.31,1.75-.07.12-.56.25-.79.52-.44.51-.73,1.15-1.29,1.56,1.4,1.66,1.75-.34,2.38-.71.51-.3,2.45-.56,3.17-1.02,3.36,1.15,4.45,2.65,4.2,6.24-.09,1.25-.91,4.82-1.53,5.85-.38.63-1.02.83-1.22,1.4-.28.8-.22,2.07-.41,2.92-.42,1.84-1.17,4.91-2.07,6.5-1.5,2.66-3.51,1.43-5.82,1.79-1.08.17-1.92,1.03-3.59,1.17-5.08.44-5.18-1.02-9.15-2.03-.84-.21-1.86-.31-2.73-.36-.32.06.05,2.06-1.2,1.93s-.15-1.43-.17-1.76c-.07-1.62-2.4-.96-2.11-3.13.19-1.43,2.05.35,2.74.6,1.14.42,2.54.43,3.75.77,3.69,1.04,4.03,2.3,8.64,1.83,1.52-.15,2.91-1.27,4.1-1.37,1.01-.08,2.16.46,3.41.08,1.71-.53,2.61-4.48,2.97-6.08.24-1.07.56-4.54.84-5.06.16-.29.78-.5,1.08-.89,1.09-1.42,1.18-4.81,1.54-6.56-2.4-3.18-5.01-1.39-7.54.55l-1.98-.79c-.36-.26-.98-2.56-.91-3.04.12-.83,1.28-1.16,1.86-1.72.17-.17,1.1-1.24.72-1.43-1.72.33-3.61-3.07-4.66-3.22s-2.12,1.53-3.42,1.81c-3.52.76-2.95-.78-3.81-3.37-2.83-.03-5.15,1.85-7.73,2.77-.89.32-1.78.13-2.6.74-.56.41-4.38,5.46-4.56,6.15-.61,2.32.67,1.68,1.71,2.71,2.35,2.32,1.88,7.57,3,10.69.14.39.62.66.65.78.12.51-.79.78-1.16.56-.29-.18-.98-3.4-1.1-4.01-.3-1.47-.47-5.14-1.42-5.96s-2.02-.65-2.58-2.18c-.52-1.43-.8-3.4-.11-4.78.36-.71,3.32-4.29,4-5.05,1.73-1.95,3.29-1.46,5.53-2.32s3.95-2.4,6.57-1.81Z"/><path d="M333.19,55.49c2.32-.48,4,1.79,4.77,3.69,1.34,3.32,1.22,9.43-1.25,12.21-3.89,4.38-7.21-3.16-7.5-6.55-.23-2.69.75-8.68,3.98-9.35Z"/><path d="M228.77,141.86l1.67-2.49c.23-.24.38-.56.78-.55.77.01,4.62,1.72,5.38,2.24.48.33,2.3,2.34,2.16,2.83-.35,1.29-1.87-.66-2.06-.79-.79-.57-3.67-1.99-4.55-2.14-1.6-.27-2.28,3.33-3.14,4.37.32.51.41.2.65.19,1.6-.05,3.18-.45,4.79-.28.87,1.86,1.1,3.1-1.3,3.54l-.56-.38.23-1.04c-.39-.41-3.79.42-4.53.59-.87.21-1.9.89-2.73.85-2.05-.08-3.96-4.08-6.43-2.4-.76.52-2.42,3.54-2.67,4.47-.33,1.22-.29,2.92-.74,4.02-.52,1.29-3.18,4.2-1.7,5.42,1.08.89,2.64,1.09,3.81,1.67.24.12.62.06.46.48-.64,1.68-4.64-.49-5.33-1.57-1.98-3.09,1.29-5.98,2.12-8.55.53-1.63.28-3.45,1.13-5.06.2-.38,1.72-2.54,1.98-2.78,2.5-2.26,5.46,2.32,6.88,2.34,1.66.02,2.83-1.2,3.22-2.72-3.55-.41-1.04-3.78-.4-5.64,1.15-3.37,0-10.31-.08-14.11-.01-.5.02-3.75,1.09-2.76.79.72.24,2.09.33,3,.35,3.54.7,7.14.74,10.7.03,2.47-.42,4.27-1.2,6.56ZM228.52,143.53l.24-1.43c-.15-.33-.66,1.03-.47,1.43h.23Z"/><path d="M259.66,123.81c.08.13.09.59.05.67-.15.22-3.79-.16-4.37-.26-2.6-.44-4.66-1.74-7.29-1.87.06.44.24.84.25,1.3.12,3.88-.06,8.56-.49,12.39-.27,2.34-.78,4.92-1.41,7.17-2.95.32-1.07-3.34-.76-5.05.38-2.14.32-4.06.54-6.13.13-1.2,1-4,.65-5-.12-.36-.64-.2-.7-.74-.1-.87.64-3.5.23-4.14-2.76-1.14-5.76-.85-8.63-1.25-5.69-.81-10.71-2.79-16.28-3.71-5.02-.83-9.24-.68-14.22-.8-1.45-.04-2.78.72-3.68-1.05,0-.78,3.88-.16,4.4-.17,5.1-.11,9.33-.28,14.49.55s9.76,3.09,15.26,3.54c1.47.12,2.98-.12,4.46.06,4.35.55,10.15,3.2,14.16,3.21.34,0,.55-.39.86-.37.29.02,2.42,1.53,2.49,1.66Z"/><path d="M245.26,167.88c-.37.47-.52,1.63-.97,2.25-1.21,1.68-3.52,1.41-4.98,2.16-.9.46-1.81,1.79-3.08,1.88-.26.02-2.79-.42-3.19-.51-1.27-.3-3.01-1.58-3.92-1.57-1.59.02-4.84,2.3-6.65,2.15-1.56-1.17-2.81-1.56-2.99-3.69-.07-.88.25-4.14.55-4.93.66-1.71,3.22-3.12,3.58-5,.14-.74-.49-1.92-.3-3.15.21-1.36,1.04-2.98,2.24-3.71.41-.25,3.62-1.89,3.84-1.9.63-.03,1.34.61,1.25,1.26-.06.2-.12.43-.27.59-.42.43-3.63,1.6-4.54,2.24-.75.53-1.53,2.1-1.52,2.98,0,.46.41.8.42,1.37.06,3.29-3.45,5.15-3.95,7.25-.13.54-.37,3.35-.13,3.72,1.51,2.28,4.5-.16,6.46-.72,2.86-.81,3.03.31,5.42,1,.72.21,2.55.6,3.23.54,1.35-.13,1.88-1.21,2.84-1.7,1.42-.73,3.56-.26,4.93-1.73.51-.55,2.54-4.36,2.74-5.12.59-2.31.3-7.51-.03-9.95-.08-.59-1.76-3.78-2.18-4.5-1.08-1.84-2.23-1.63-4.1-1.74v-.71c.79.21,1.61-1.44,2.26-1.44,1.97.76,2.11,2.23,2.93,3.74,1.06,1.95,1.61,2.28,1.92,4.75.41,3.38.89,10.66-.95,13.51-.29.44-.7.49-.85.69Z"/><path d="M10.2,166.33c-.43.52-1.92.19-2.45-.18-.54-.49-.02-1.39.23-1.91,2.73-5.7,7.72-9.82,10.41-16.02,2.16-4.98,3.78-9.24,6.81-13.91,2.11-3.26,4.97-5.58,6.29-9.43.09-.25.03-.4-.05-.63.84-.17,1.4.76,1.36,1.51-.13,2.32-4.46,7.22-5.83,9.37-4.5,7.01-6.42,14.61-10.6,21.54-1.89,3.13-5.44,5.85-6.16,9.66Z"/><path d="M84.72,144.29c.14.22-.07.72.28,1.03.31.28,2.93.85,3.45.84.95-.03,4.89-.77,5.85-1.07,4.69-1.47,8.6-8.39,10.75-12.58.3-.58.42-1.67.79-2.08.98-1.1,1.89,2.27,1.42,2.86-4.56,8.62-8.35,15.29-19.51,14.06-1.21-.13-2.68-1.11-3.59-1.19-1.19-.11-2.54.42-4.15.13-4.4-.8-8.33-7.2-10.27-10.92-1.09-2.09-1.73-4.44-2.71-6.58-.08-.53.74-1,1.21-.49.09.1,1.12,1.99,1.28,2.29.71,1.44,1.1,3.19,1.8,4.62.76,1.56,4.01,6.85,5.12,7.97.93.94,2.92,1.97,4.25,1.97.71,0,3.51-1.69,4.05-.85Z"/><path d="M307.72,233.12c.06.03.19.55.78.53-1.34,1.78-3.52,1.65-5.48,2.62-1.51.75-2.54,1.87-3.87,2.8-.91.64-2.58,1.26-3.28,1.95-.36.36-1.48,2.95-1.56,3.46-.11.72,1.87,3.06,2.43,3.79s3.04,3.91,3.67,4.2c.18.08.33.18.54.09,1.43-.95,2.63-1.31,3.64-2.82,1.46.68.77,2.36-.14,3.2-.67.62-1.41.6-1.89.96-.69.53-.8,3-.96,3.92.43.14,2.04-.35,1.91.36-.11.56-1.68,2.88-2.47,2.75-1.08-.17-.94-5.03-.53-5.98l-6.41-8.08c-.57-.1-.3.26-.34.6-.26,1.89-.43,3.8-.73,5.69.83,1.44,2.36,1.92,1.91,3.94-1.06-.18-.78-1.23-1.32-1.89-.33-.4-1.07-.54-1.31-.9-1.1-1.64-.2-2.95-.02-4.5.33-2.78.76-9.41,3.14-11.15.92-.67,2.41-1.18,3.4-1.84,1.23-.83,2.18-2.05,3.68-2.75.8-.38,4.73-1.24,5.22-.96Z"/><path d="M45.66,132.38c1.94-.29-.53,3.65-.76,4.49-.15.54-.4,1.5-.39,2.03.02.76.48,1.05.51,1.44.04.45-.36.72-.37.93-.22,6.1-.12,12.22-.36,18.33-.11,2.85-.19,5.7-.23,8.58-.02,1.77-.69,3.66.16,5.48-.12.72-2.6.92-2.71-.76-.15-2.41.46-5.9.56-8.43.2-5.5.34-11.1.53-16.54.12-3.3-.3-10.43,1.02-13.05.32-.63,1.39-2.41,2.03-2.51Z"/><path d="M44.24,77.88c2.9-.46,6.47.72,9.03,2.04.69.36,4.27,2.54,4.12,3.26-.29,1.4-3.27-1.44-3.74-1.73-6.28-3.9-10.78-2.05-15.78,2.69-4.48,4.24-5.68,12.81-5.73,18.81,0,.43-.02.8.38,1.07l.95-.24c.91,1.65-2.18,3.36-3.05-.28-.56-2.33.54-9.55,1.09-12.15.97-4.56,2.62-7.09,6.25-9.94,1.49-1.17,4.63-3.22,6.48-3.52Z"/><path d="M207.95,156.96c-.06-.09-.35-.09-.38-.26-.12-.68.53-1.4.69-2.13.64-2.78.55-5.89,1.04-8.72.71-4.08,2.01-8.08,2.52-12.24.55-4.48.21-9.06.75-13.54.03-.28-.1-.48.35-.35,2.04.6,1.13,1.74,1.07,3.2-.11,2.86-.02,6.01-.23,8.82-.38,4.97-1.74,9.71-2.55,14.59-.56,3.35-.61,7.38-1.36,10.55-.36,1.52-1.19,1.09-1.9.08Z"/><path d="M84.03,187.08c-1.08.33-2.42.04-2.57-1.28.47-4.68.76-9.35.69-14.07-.06-3.98-.81-8.35-.42-12.36.15-1.58.07-2.83,1.93-3.2,1.44,1.25.27,1.95.13,3.42-.38,4.21.37,8.7.48,12.87.11,3.93.27,8.08,0,11.9-.06.87-.4,1.77-.26,2.72Z"/><path d="M276.36,178.31c-.21.74.6,1.3.66,1.8.21,1.68-1.45,2.75-2.05,4.05-.35.75-.78,3.29-1.03,3.61-.19.23-1.04.61-1.14-.06-.11-.82.85-4.05,1.19-5.01.29-.84.92-1.42.96-2.25-1.27-.21-2.74-.22-3.94-.71-1.92-.78-2.39-1.75-5.02-2.12-4.39-.63-3.24.7-5.56,2.95-.48.46-2.43,1.92-3,2.01-.78.12-4.25-.49-4.64-1.04-.33-.48-.22-1.01-.22-1.56,1.43-.03,3.14,1.08,4.46.53.14-.06,2.43-1.59,2.57-1.72,1.75-1.76,1.4-3.78,4.94-3.48,2.37.2,3.6,1.1,5.47,2.1,1.74.93,4.4.88,6.34.92Z"/><path d="M221.62,68.53c1.33.1,1.76,1.52,2.03,2.61,2.97,11.74,7.25,24.81,8.2,36.8.15,1.88-.49,3.24-.49,4.76,0,.6.73,3.29-.11,3.45-.87-.12-1.23-.85-1.49-1.6.89-6.92-.1-14.08-1.51-20.87-1.75-8.47-4.59-16.75-6.63-25.15Z"/><path d="M121.18,209.48c-.92.85-1.6-2.82-1.63-3.24-.33-3.79,1.57-7.78,2.28-11.47,2.23-11.61,3.11-18.66,1.06-30.45-.17-.99-.11-2.76-.32-3.48-.13-.43-.78-.66-.85-1.03s.37-2,.78-1.99c1.6,2.07,1.19,5.15,1.58,7.7.22,1.42.69,2.84.89,4.35,1.37,10.17-1.01,21.53-3.52,31.41-.67,2.63-1.12,5.58-.25,8.2Z"/><path d="M338.45,322.38v.52c-1.56,1.91-4.82,1.8-5.96,4.04-.77,1.53-2.01,5.56-2.45,7.31-.24.97-.47,3.88-.82,4.38-.63.91-1.1-.85-1.11-1.45-.1-3.45,2.33-7.41,3-10.78-2.17-1.48-7.06-1.22-6.43-4.77h.96c-.11-1.52.15-3.26,1.19-4.42.81-.38,1.88.6,2.37,1.2-.45.71-1.4.56-1.87,1.22-.52.73-.8,2.42-.01,3.05.5.4,3.71,1.67,4.33,1.51,1.16-.94,2.67-1.14,3.92-1.8,1.42-.76,1.07-1.82,2.88-.01Z"/><path d="M322.77,262.36l-2.12,3.91c-.78.49-1.32-.41-1.85-.55-1.35-.37-1.91.76-2.94,1.23-4.4,2.01-6.04.58-10.36-.06-1.05-.16-1.98.04-3.13-.2-.82-.17-5.02-1.57-5.6-1.96-.36-.24-.65-1.58-.64-2.04,0-.52.1-.39.55-.31,2.26.42,4.8,1.71,7.02,2.27s7.2,1.5,9.2,1c1.26-.31,2.77-1.26,4.09-1.4,1.02-.11,1.71.36,2.65.3.83-1.04,1.54-3.32,3.14-2.2Z"/><path d="M9.68,51.97c1.77,1.6,5.42,11.13,7.47,14.31,4.04,6.24,9.68,11.24,13.94,17.49.22.32.47.46.35.96-.41.41-1.88-1.25-2.14-1.55-1.04-1.26-1.8-2.98-2.87-4.28-4.85-5.89-9.37-9.43-13.21-16.55-.96-1.77-2.82-6.88-3.71-7.96-.31-.38-.69-.3-.94-.55-.57-.57-.6-1.93-1.17-2.57.7-.91,1.65.13,2.27.7Z"/><path d="M280.28,205.09c.16.16.39.06.37.44-.02.44-.6,2.21-.95,2.43-.82.21-1.28-.4-2.19-.32-.97.09-2.05.8-2.99,1.07-1.62.47-5.66,1.47-6.9,2.5-.29.24-.23,1.24-1.38,1.37s-7.26-2.15-7.82-3.1c-.2-.34-.2-.89-.37-1.28.09-.82,3.23.43,3.75.52.72.13,4.74.8,5.15.76,1.11-.11,2.81-1.38,4-1.73,1.1-.32,2.34-.3,3.52-.76.77-.3,1.64-1.13,2.33-1.26,1.63-.31,2.24,1.44,3.27-1,.16-.07.08.22.22.37Z"/><path d="M188.42,118.3c.4,0,.8,3.62.83,4.16.43,6.93-.45,16.37-1.46,23.3-.67,4.66-3.44,8.04-4,13.16-.1.89.72,1.72-.84,2.23-1.16-.27.22-5.45.47-6.43.87-3.41,2.92-6.34,3.43-9.67.9-5.86,2.25-18.72,1.47-24.27-.13-.92-1.05-1.5.11-2.48Z"/><path d="M56.14,120.38c-.65.63-2.84.3-3.67.38-3.44.33-6.21,5.12-10.4,3.22s-11.7-10.57-12-15.39c-.1-1.65,2.24-3.3,3.27-1.61,0,.32-2.06.6-2.08,1.61-.02,1.32,1.79,5.28,2.56,6.49,1.12,1.77,7.42,8.32,9.37,8.15.2-.02,2.72-1.02,3.07-1.19,1.18-.59,2.46-1.83,3.74-2.21,1.87-.54,4.03.09,5.64-1.27.88.06,1.01,1.32.5,1.81Z"/><path d="M23.59,117.58c.11.92-.18,1.73-.97,2.24-1.89,1.22-5.01,2.26-7.12,3.35-1.36.7-1.73.85-3.09,1.44-1.96.85-4.76,3.96-7.06,4.85-1.47.57-2.92.95-3.89-.57.65-.68,1.11-1.31,2.09-1.5,2.67-.52,3.7-1.86,6.08-3.18,4.24-2.34,9.09-3.8,13.12-6.4.29-.19.47-.3.84-.23Z"/><path d="M106.83,162.4c4.15-.82,5.38,1.34,6.42,4.89.73,2.46,1.92,9.33-2.79,7.55-3.32-1.25-5-7.76-5.02-10.96,0-.9.51-1.32,1.39-1.49ZM107.15,164.97c-1.21,2.53,1.77,9.09,4.99,7.49,1.63-.81.12-9.25-3.1-7.98v1.19c-.76-.07-.98-1-1.89-.7Z"/><path d="M250.55,124.48l1.55.84.19.42c-.88,2.44-.63,5.18-.94,7.64-.22,1.76-1.12,3.79-1.37,5.77-.36,2.77.38,5.69-1.35,7.93-.87,1.13-1.54-.43-1.98-1.26.55-.56.77-.92.97-1.68.63-2.45.49-5.73.97-8.29.23-1.21.96-2.77,1.11-3.89.28-2.13.13-4.73.5-6.88.05-.28.12-.43.36-.6Z"/><path d="M131.65,107.1c-.72.06-.89-.75-.96-1.3-1.05-9.12,1.25-25.17,2.94-34.45.4-2.18.6-5.28,2.06-6.86-.38.85.49,2.02.48,2.51,0,.17-.92,1.43-1.12,2.2-.66,2.57-1.08,6.3-1.47,9.01-1.28,9.02-1.97,17.75-1.94,26.88,0,.7.4,1.27,0,2.01Z"/><path d="M145.75,189.66c-.26-.25-.74-2.4-.78-2.91-.3-3.46.25-9.45.5-13.11.1-1.44.17-3.6.53-4.93.26-.98,1.12-2.61,2.09-1.27.86,1.2-.01,1.37-.19,1.98-.91,3.16-.65,7.34-.77,10.66-.07,1.92-.67,5.31-.24,7.13.22.93,1.67,1.57.34,2.98-.3-.19-1.34-.39-1.48-.53Z"/><path d="M119.04,158.29c.22,1.79-.22,3.56-.23,5.35,0,1.16.42,2.53.24,3.83-.46,3.25-.11,5.19-.25,8.32-.1,2.19-.81,4.49-.47,6.79-2.3.4-1.99-2.6-1.9-4.17.17-2.9.83-5.8.88-8.82.03-1.69-.66-10.54.29-11.2.33-.23,1.03-.07,1.44-.11Z"/><path d="M156.4,120.68c-.45,1.07.84,2.9.73,3.66-.02.16-.44.12-.48.31-.51,2.05.06,7.26,0,9.73-.08,4-.47,8.11-.49,12.12-.02,3.34.89,9.36-.12,12.28-.44,1.28-1.39-.08-1.32-1.07.04-.53.43-.81.49-1.2.09-.64.16-1.83.17-2.51.19-9.83-.48-20.38.07-30.11.02-.33.29-4,.96-3.2Z"/><path d="M305.64,323.05c.59,1.18.34,2.39.58,3.59.2,1,1.12,2.09.97,3.08l-1.07-.71c.28,11.16-1.09,22.28.95,33.33-.54.08-.95-.14-1.14-.64-.39-2.35-.34-4.73-.53-7.09-.69-8.5-.48-17.01-.23-25.47.05-1.79-.23-4.04-.01-5.73.04-.33.13-.7.47-.35Z"/><path d="M79.68,84.41c-.66.85-1.84,1.72-2.53,2.59-2.1,2.67-3.08,4.95-6.08,7.02-.74.51-2.07,1.17-2.86.48-1.08-.95,1.37-1.85,2.15-2.62,1.86-1.81,4.03-4.94,5.83-7.03.34-.39,1.17-.9,1.52-1.33.41-.5,1.88-3.11,2.04-3.21.24-.15,1.01.1,1.19.26.92.78-.71,3.12-1.27,3.85Z"/><path d="M122.85,64.72c-.32.07-.77.09-.97.4-.32.51-.81,3.49-.9,4.27-.49,4-.3,8.1-.75,12.11s-2.05,8.65-2.37,12.63c-.23,2.83.25,5.74-.24,8.57-2.13.24-.8-2.65-.72-3.81.11-1.65-.11-3.35,0-4.99.3-4.25,2.04-9.04,2.59-13.36.66-5.16-.1-11.54,1.57-16.53.25-.76.75-1.6,1.67-1.19l.12,1.9Z"/><path d="M290.23,296.56c-.94-.98-.09-4.94-.15-6.44-.06-1.32-.62-2.9-1.69-3.74-1.91-1.51-2.51-1.03-3.98-3.64-2.54-4.52-3.87-8.85-5.79-13.49-.73-1.76-2.2-3.26-2.25-5.24.47.19,1.61,1.01,1.77,1.42.09.23-.13.59-.04.78,2.25,5.01,4.26,11.4,7.07,16.02,1.27,2.08,4.14,2.71,5.52,5.9.87,2.02.45,3.11.46,5.02,0,1.06.6,2.33-.15,3.48-.14.36-.63.08-.77-.06Z"/><path d="M114.63,110.68c1.28,1.27.46,1.86.38,2.99-.33,4.62.05,9.39.22,14.03.22,5.8-.03,12.12,1.83,17.69.36,1.09,1.18,1.98,1.97,2.79-1.39,1.18-1.95.19-2.44-1.12-2.58-6.91-2.14-15.18-2.3-22.46-.09-4.15-.89-9.01-.01-13.09.07-.32-.03-.6.36-.83Z"/><path d="M190.68,109.48l-.72-.11-.24-.5,1.45-16.41c.27-7.28-.48-14.43-1.22-21.65-.05-.5-.9-3,.38-3,.69,0,.79,2.15.83,2.74.36,5.2.94,10.48.97,15.7.03,7.76-1.23,15.48-1.44,23.22Z"/><path d="M308.17,194.1c2.26,2.56,4.54,4.8,5.02,8.42.14,1.04.09,3.3-1.13,3.63-.22-1.17.26-2.35.26-3.45,0-3.59-5.29-6.7-7.03-9.66-1.11-1.9-1.32-5.13-2.23-7.06-1.19-2.51-5.33-4.87-5.05-8.16,1.18.91,1.94,2.28,2.86,3.45,1.19,1.5,1.98,1.84,2.8,3.87,1.77,4.39,1.06,5.09,4.49,8.97Z"/><path d="M25.02,106.15c.07.61-.04,1.15-.65,1.39-.9.24-1.97-.77-2.82-.9-2.82-.45-5.97,1.37-8.62,2.06-2.35.61-7.52,1.98-9.72,2.18-1.02.1-2.95.33-3.19-1.04-.07-.45.05-.3.3-.42,1.04-.46,1.74.05,2.62,0,1.63-.09,7.5-1.67,9.51-2.16,3.16-.76,5.66-2.29,9.09-1.81,1.29.18,2.04,1.24,3.47.69Z"/><path d="M161.4,70.91c-.26,1.04.3,2.31.26,3.21-.06,1.3-.65,3.46-.73,5-.45,8.18-.88,16.73-.26,24.78.03.41.31,4.9-.69,4.15-.72-1.91-.42-3.85-.47-5.84-.23-8.64-.25-20.75.95-29.27.09-.61.1-2.09.95-2.03Z"/><path d="M178.3,69.72l-1.78,36.9-.96-.46c-.37-.83.11-1.67.14-2.5.32-10.43.63-21.8,1.66-32.15.06-.58.16-1.87.95-1.79Z"/><path d="M132.13,151.39c-.96.19-1.27-1.02-1.49-1.72-2.05-6.26-2.13-15.33-2.55-21.97-.17-2.62-.66-5.5-.73-8.1-.02-.55.13-1.03.26-1.55.89-.07.63.89.82,1.44.11.31.53.66.53.82,0,.26-.44,1.14-.41,2.16.19,5.26.65,11.65,1.2,16.89.42,3.96,1.27,8.21,2.38,12.03Z"/><path d="M62.69,159.19c.04.07.4.05.42.21.06.47-.5,1.56-.25,2.23-.48-.05-1.28.15-1.68-.11-1.05-.69.19-6.9.26-8.33.06-1.34.06-2.96,0-4.31-.08-1.83-.9-5.49-.5-7.1.13-.53.88-.32,1.17.23.5.93.16,1.85.27,2.82.23,2.11.67,4.58.73,6.67.03,1.23-.62,7.35-.43,7.68Z"/><path d="M261.05,194.64c-.39.43-1.33.93-1.74,1.36-.92.97-3.65,4.93-4.02,6.1-.47,1.45.8,1.94,1.43,2.88.43.63,1.13,1.81-.1,1.89-.04-1.24-.97-1.43-1.56-2.13-.81-.97-1.27-2.34-.95-3.59.23-.9,3.01-5.4,3.7-6.23.91-1.1,2.43-1.8,3.05-2.97s1.14-4.7,3.11-3.06c-1.15,1.68-1.58,4.29-2.91,5.75Z"/><path d="M341.83,324.24h-.95c-.01,1.33-.63,2.72-1.19,3.93l-3.76.88c-.17.55-.5,1.72-.88,2.09-.36.35-.93.29-1.3.61-.17.14-1.05,2.11-1.55,1.31-1.33-2.14,1.76-5.56,3.71-6.29.86-.32,2.56-.25,3.09-.96.63-.85.98-4.88,1.54-5.13.45,1.22,1.44,2.16,1.31,3.57Z"/><path d="M274.94,187.58c3.62.36,5.05-3.52,7.26,1.2.64,1.38,1.62,6.02,1.56,7.49-.04,1.11-.92,2.45-1.27,3.51-.23.7-.46,3.15-1.01,3.28-.52-.01-.59-.36-.58-.8.07-2.32,1.67-5.27,1.67-7.18,0-1.18-.69-5.64-1.74-6.13-2.3-1.07-6.28,3.63-5.9-1.37Z"/><path d="M73.33,128.29c-.84.15-1.4-.01-1.6-.89-.32-1.45.32-3.37.07-5.14-.45-3.22-3.95-7.85-6.33-10.04-.9-.83-2.22-1.01-2.62-2.26.78-.58,3.47,1.68,4.06,2.25,2.79,2.72,7.24,8.39,7.16,12.4-.02.98-.98,2.49-.74,3.68Z"/><path d="M145.93,68.53c.66,1.89-.31,3.38-.47,5.12-.5,5.45.04,11.47-.48,17.14-.18,1.97-.61,3.93-.71,5.91l-.6.39c-1.18-1.02-.32-1.95-.14-2.99,1.49-8.45.08-17.01,1.93-25.21.08-.37-.16-.42.47-.36Z"/><path d="M270.13,143.25c-1.23.72.18,2.95.87,3.87,3.2,4.2,7.74,9.19,7.04,15.12-.14,1.2-1.08,1.2-1.15-.08-.04-.72.21-1.2.13-2.01-.52-5.14-4.33-8.33-7.05-12.25-1.29-1.86-1.55-4.54-1.47-6.75.37-.42,1.39,1.63,1.65,1.8l-.04.3Z"/><path d="M231.86,158.05c1.04-.12,1.77-1.27,2.85-.71-.55,2.53-4.64,4.49-6.99,3.3-.84-.42-1.07-.72-.87-1.76.26-1.28,3.41-.48,3.94-1.54s-.47-3.47.73-4.52l1.07.83c-.57,1.5-.92,2.76-.73,4.4Z"/><path d="M298.82,203.93c3.58,4.16,3.89,7.1,6.54,11.44,1.28,2.09,3.5,3.61,3.38,6.26l-1.07-.23c-.85-2.13-2.47-3.85-3.54-5.98-1.15-2.29-1.86-5.11-3.21-7.27-1.22-1.96-3.93-3.54-3.6-6.03.79.33,1.01,1.25,1.51,1.82Z"/><path d="M271.6,205.44c-.83-.27-1.26-1.05-1.97-1.48-.66-.39-1.47-.52-2.15-.94-.76-.46-1.91-1.75-2.76-2-1.85-.54-5.47.64-4.77-2.49,2.12-.06,3.93.21,5.78,1.24.71.39,1.26,1.01,1.98,1.35,1.77.82,2.77,0,3.61,2.34.24.67.36,1.26.29,1.97Z"/><path d="M69.92,110.28c-.47-.45-1.2-1.08-1.71-1.5-.93-.77-2.37-1.04-2.25-2.39,2.7,1.14,5.32,3.74,7.26,5.95s4.82,6.47,5.9,9.05c.68,1.63-.31,2.28-1.26.83-.38-.57-.43-1.27-.75-1.87-1.86-3.6-4.26-7.25-7.19-10.07Z"/><path d="M262.48,233.61c4.04,3.96,5.29,8.75,7.9,13.41,1.25,2.24,3.39,4.27,3.85,6.74-.4-.2-.78-.61-1.05-.97-3.79-4.84-5.24-10.19-8.51-14.82-1.12-1.59-3.14-2.89-3.05-4.92.03-.04.74.44.87.56Z"/><path d="M317.78,263.53c-1.3-.05-2.32-1.11-3.61-1.5-1.98-.61-3.66-.68-5.68-1.7-1.18-.59-2.88-1.65-1.54-2.94,2.38,2.44,7.55,1.97,9.87,3.65.71.51.36.92.55,1.59.09.34.53.46.42.89Z"/><path d="M343.42,338.83c.81.51.28,1.8.3,2.55-.38.39-4.87-2.93-5.59-3.34s-1.57-.88-2.34-1.23c-1.41-.65-2-.09-1.8-2.42.2-.43.29-.39.69-.29.58.15,2.35,1.17,3.01,1.52,1.56.85,2.99,2.05,4.5,2.88.41.22.96.16,1.22.33Z"/><path d="M199.96,136.15c-1.05,4.36-.86,8.99-1.43,13.45-.53,4.12-1.66,8.32-2.59,12.36l-.73.14c-.52-.5,1.73-7.59,1.98-8.85,1.05-5.16,1.08-10.65,1.62-15.76l1.16-1.34Z"/><path d="M309.16,236.92c1.68,2.14-3.69,2.19-4.34,3.52-.33.67-.5,3.69-.36,4.39.12.63.89.96.89,1.19.02.82-1.74,1.7-2.06-.5-.15-.98.08-4.83.24-5.91.38-2.7,2.39-1.96,4.09-2.33.47-.1,1.08-.95,1.54-.37Z"/><path d="M269.15,193.93c-.64.57-3.89,1.29-4.18,1.78-.32.68,1.3,2.09.68,2.58s-1.39-1.45-1.6-1.84c-.31-.57-.93-.69-.78-1.84s3.95-2.1,4.9-2.75c-.49-.94.13-3.9.93-2.14.05.11.56,2.07.59,2.27.09.65-.04,1.48-.54,1.93Z"/><path d="M326.29,245.5c.32.5.48,1.85,1.15,2.54.6.62,1.39.72,1.88,1.93.46,1.13-.22,2.5-.78,3.48-.49.87-1.44,1.62-1.76,2.29s-1.06,4.53-2.57,2.91c-.73-.78.46-1.21.82-1.81.41-.68.43-1.64.76-2.34.49-1.06,2.52-2.77,2.47-3.97-.5-.7-1.01-1.04-1.47-1.84-.27-.48-1.62-3.42-1.38-3.73.2.14.8.41.88.54Z"/><path d="M309.84,253.68c-.81.83-2.36,1.83-3.57,1.52l-.62-1.77c.13-.44,1.23-.41,1.74-.65,1.33-.63,2.54-2.27,3.02-3.65.4-1.15.22-3.37,2.02-1.55-.26,1.86-1.25,4.71-2.59,6.09Z"/><path d="M237.54,174.99c.13.08.32.99.27,1.23-.03.16-.37.16-.46.35-.67,1.43-1.34,2.21-2.17,3.5-.56.89-2.26,5.05-3.8,4.3l-.46-.92c1.77-1.51,2.36-3.77,3.44-5.63.46-.78,2.02-3.57,3.17-2.84Z"/><path d="M257.33,132.34c.21-.14.84.03.93.39.11.42-.5,1.69-.44,2.55.35,4.92,3.41,6.52,6.18,9.55,1.29,1.42-.66,1.16-1.79.36-2.63-1.87-5.19-6.72-5.34-9.92-.02-.39.33-2.85.46-2.94Z"/><path d="M293.5,239.96l-1.2-.35c-1.42-2.58-3.19-4.93-4.71-7.43-.86-1.42-2.51-3.84-3.08-5.25-.27-.67-.37-1.24-.3-1.96,1.18.93,1.66,2.61,2.43,3.88,1.47,2.45,3.07,4.88,4.61,7.29.74,1.16,2.09,2.24,2.24,3.82Z"/><path d="M317.72,231.92c.19.34.11,1.24-.32,1.36-1.37-.33-2.27-1.15-3.79-.96-1.45.19-2.38,3.36-3.22-.35l.06-.3c1.72-1.4,2.43-2.1,4.78-1.41.46.13,2.29,1.29,2.5,1.66Z"/><path d="M248.58,193.23c2.99,1.41,4.91,2.8,4.89,6.38,0,1.26-1,1.11-1.27-.12-.45-2.04.53-2.34-1.62-3.62-2.59-1.54-3.55-.85-3.23-4.8.04-.49.45-2.71,1.04-1.33.31.73-.27,2.96.18,3.5Z"/><path d="M324.21,244.48l-1.8.46c-.35.93.35,3.65-.74,4.03-1.03.35-1.61-.44-2.39-.63-2.11-.51-3.14.31-2.92-2.91.9-.18,1.17,1.08,1.34,1.21.37.28,2.86,1.02,3.27.72.85-.98.05-2.35.15-3.22.21-1.75,3.56-.3,3.1.34Z"/><path d="M239.24,158.29l.97.11c.45.3.62,4.99-1.2,4.66-.19-1.03-.13-2.19-.26-3.2-.11-.85-.56-1.33-.47-2.4.11-1.27,1.16-1.58,1.18-2.84l-.22-.26c-.91.15-1.37-.34-.59-1.06,2.32.57,1.33,3.43.59,5Z"/><path d="M347.78,336.15c-.31-.98-.56-2.01-.65-3.04-.04-.43.2-.8.17-1.12-.21-2.45-1.31-5.92,1.43-7.26.92,1.72-.2,1.96-.58,3.11-.3.91.02,4.38.11,5.58.07.99,1.06,2.57-.48,2.74Z"/><path d="M260.57,187.2c.17.1.35.44.58.52.02.67-.69.8-.8,1.1-.24.65,0,1.37-.39,1.99-.47.77-1.25.46-1.93.69s-1.74,2.07-2.12.24c-.35-1.67.67-1.25,1.48-2.33,2.82.58,1.01-1.84,2.64-2.5.25.01.38.21.54.3Z"/><path d="M316.11,280.67c-.43.28-1.19-.16-1.32-.7s.26-.87.26-1.31c.03-1.77-1.36-4.2-2.03-5.84l-.45.04-.14.45h-.48c-.72-.8-.87-2.1,0-2.86.66-.15,2.55,3.62,2.85,4.29.38.87,2.05,5.46,1.31,5.94Z"/><path d="M243.28,192.1c-1.77.44-1.32-2.24-2.07-2.87-.86-.73-4.72-.74-3.53-2.85l2.22.41c1.49-.23,3.69,4.99,3.38,5.31Z"/><path d="M78.39,113.71c-.73-.65-.49-3.81-.29-4.81.05-.28.1-.43.35-.59l1.53.86c.18.58-.49,1.1-.49,1.87,0,.63,1.18,2.62.12,2.96-.32.1-.96-.05-1.22-.28Z"/><path d="M338.73,269.01l2.26,8.82c.97.84.54,1.45.36,2.6-1.39-1.49-1.38-3.93-1.87-5.86-.19-.76-1.51-4.9-1.44-5.17.08-.29.39-.46.69-.39Z"/><path d="M320.46,240.49c-.34.22-.88,2.68-1.03,2.78-.37.26-1.24-.14-1.37-.62-.19-.73,1.16-4.4,2.24-4.35.23.01,1.27,1.45,1.3,1.55.16.66-.9.5-1.14.64Z"/><path d="M313.76,242.31c-.52-.32.06-1.74-.06-2.18-.17-.69-1.7-1.25-2.08-1.99-.35-.66-.3-1.26-.27-1.99.41-.11.48.17.71.35,1.19.91,3.34,3.91,2.82,5.44-.08.41-.86.53-1.13.37Z"/><path d="M253.28,202.1c.25.16-.01,1.72.1,2.15.35,1.42,1.72,3.81,3.48,3.33l-.51,1.15c-1.24.78-3.35-2.58-3.66-3.53-.18-.54-.56-2.67-.12-3,.14-.14.63-.16.72-.11Z"/><path d="M342.53,331.62c-2.23-.85-1.39-4.29-.59-5.95,1.44,1.84-.16,3.8.59,5.95Z"/></svg>