<svg fill="#000" height="201px" width="201px" version="1.1" id="Layer_1" xmlns="http://www.w3.org/2000/svg" xmlns:xlink="http://www.w3.org/1999/xlink" viewBox="-51.2 -51.2 614.40 614.40" xml:space="preserve" stroke="#ffffff" stroke-width="0.00512">
    <g id="SVGRepo_bgCarrier" stroke-width="10"></g>
    <g id="SVGRepo_tracerCarrier" stroke-linecap="round" stroke-linejoin="round" stroke="#F00" stroke-width="3.072"></g>
    <g id="SVGRepo_iconCarrier">
        <g>
            <g>
                <g>
                    <path d="M304.199,43.996l-75.185,46.469H50.46C22.591,90.465,0,113.056,0,140.925V292.9c0,27.868,22.591,50.46,50.46,50.46 h178.554l75.185,46.469c8.259,5.105,18.916-0.836,18.916-10.545V54.543C323.115,44.833,312.458,38.892,304.199,43.996z M79.751,185.467c-8.423,0-15.25-6.827-15.25-15.25c0-8.423,6.829-15.25,15.25-15.25c8.423,0,15.25,6.829,15.25,15.25 C95.001,178.64,88.174,185.467,79.751,185.467z">
                        <animateTransform attributeName="transform" type="translate" from="0 0" to="30 0" dur="1s" repeatCount="indefinite" />
                    </path>
                    <path d="M475.267,142.502c-8.143-6.262-19.939-0.419-19.939,9.852v129.115c0,10.273,11.796,16.116,19.939,9.852 C497.588,274.15,512,247.187,512,216.912C512,186.636,497.588,159.673,475.267,142.502z">
                        <animateTransform attributeName="transform" type="translate" from="0 0" to="30 0" dur="1.5s" repeatCount="indefinite" />
                    </path>
                    <path d="M362.202,8.147l-14.612,9.03c-3.655,2.259-5.879,6.25-5.879,10.545V406.1c0,4.297,2.224,8.287,5.879,10.545 c11.932,7.374,21.204,15.242,38.712,15.24c27.656,0,50.429-22.473,50.429-51.443c0-9.573,0-328.401,0-327.162 C436.731,10.769,390.834-9.55,362.202,8.147z">
                        <animateTransform attributeName="transform" type="translate" from="0 0" to="30 0" dur="2s" repeatCount="indefinite" />
                    </path>
                    <path d="M181.802,361.95H85.759c-6.847,0-12.398,5.55-12.398,12.398v117.303c0,10.27,8.326,18.596,18.596,18.596h83.646 c10.27,0,18.597-8.326,18.597-18.596V374.347C194.2,367.5,188.65,361.95,181.802,361.95z">
                        <animateTransform attributeName="transform" type="translate" from="0 0" to="30 0" dur="2.5s" repeatCount="indefinite" />
                    </path>
                </g>
            </g>
        </g>
    </g>
</svg>